<svg width="64" height="28" viewBox="0 0 64 28" fill="none" xmlns="http://www.w3.org/2000/svg">
<path d="M0.03125 0.5625H14.4688V4.78125H4.8125V9.84375H13.8438V14.0625H4.8125V24H0.03125V0.5625ZM14.7812 24L23.9219 0.5625H29.2812L38.4219 24H33.3125L31.3438 18.75H21.8594L19.8906 24H14.7812ZM29.7812 14.5312C29.1562 12.6979 28.599 11.0573 28.1094 9.60938C27.6198 8.16146 27.1198 6.66667 26.6094 5.125C26.099 6.66667 25.5938 8.16146 25.0938 9.60938C24.6042 11.0573 24.0469 12.6979 23.4219 14.5312H29.7812ZM51.4062 0.09375C53.1667 0.09375 54.7865 0.395833 56.2656 1C57.7552 1.60417 59.0469 2.45312 60.1406 3.54688C61.2344 4.64062 62.0833 5.93229 62.6875 7.42188C63.2917 8.90104 63.5938 10.5208 63.5938 12.2812C63.5938 14.6562 63.0469 16.776 61.9531 18.6406C60.8594 20.5052 59.3854 21.9427 57.5312 22.9531C57.9271 22.974 58.3229 22.9948 58.7188 23.0156C59.1146 23.026 59.5365 23.0312 59.9844 23.0312C60.5365 23.0312 61.1042 23.0208 61.6875 23C62.2708 22.9792 62.8802 22.9479 63.5156 22.9062L62.625 27.2812C61.1562 27.0833 59.8646 26.8698 58.75 26.6406C57.6354 26.4115 56.5521 26.125 55.5 25.7812C54.4583 25.4375 53.2917 24.9948 52 24.4531C51.8958 24.4635 51.7969 24.4688 51.7031 24.4688C51.6094 24.4688 51.5104 24.4688 51.4062 24.4688C49.6458 24.4688 48.0208 24.1667 46.5312 23.5625C45.0521 22.9583 43.7656 22.1094 42.6719 21.0156C41.5781 19.9219 40.7292 18.6354 40.125 17.1562C39.5208 15.6667 39.2188 14.0417 39.2188 12.2812C39.2188 10.5208 39.5208 8.90104 40.125 7.42188C40.7292 5.93229 41.5781 4.64062 42.6719 3.54688C43.7656 2.45312 45.0521 1.60417 46.5312 1C48.0208 0.395833 49.6458 0.09375 51.4062 0.09375ZM51.4062 20.25C52.8229 20.25 54.0833 19.9062 55.1875 19.2188C56.2917 18.5208 57.1615 17.5729 57.7969 16.375C58.4323 15.1771 58.75 13.8125 58.75 12.2812C58.75 10.75 58.4323 9.38542 57.7969 8.1875C57.1615 6.97917 56.2917 6.03125 55.1875 5.34375C54.0833 4.65625 52.8229 4.3125 51.4062 4.3125C49.9896 4.3125 48.7292 4.65625 47.625 5.34375C46.5208 6.03125 45.651 6.97917 45.0156 8.1875C44.3802 9.38542 44.0625 10.75 44.0625 12.2812C44.0625 13.8125 44.3802 15.1771 45.0156 16.375C45.651 17.5729 46.5208 18.5208 47.625 19.2188C48.7292 19.9062 49.9896 20.25 51.4062 20.25Z" fill="#1E1F36"/>
</svg>
